<mxfile host="65bd71144e">
    <diagram id="qKl63IcbRpRodnHXY_VZ" name="Page-1">
        <mxGraphModel dx="2449" dy="941" grid="1" gridSize="10" guides="1" tooltips="1" connect="1" arrows="1" fold="1" page="1" pageScale="1" pageWidth="850" pageHeight="1100" math="0" shadow="0">
            <root>
                <mxCell id="0"/>
                <mxCell id="1" parent="0"/>
                <mxCell id="34" value="" style="rounded=0;whiteSpace=wrap;html=1;sketch=1;hachureGap=4;jiggle=2;curveFitting=1;fontFamily=Architects Daughter;fontSource=https%3A%2F%2Ffonts.googleapis.com%2Fcss%3Ffamily%3DArchitects%2BDaughter;fontSize=20;fontColor=#FFFFFF;" vertex="1" parent="1">
                    <mxGeometry x="-210" y="580" width="790" height="380" as="geometry"/>
                </mxCell>
                <mxCell id="2" value="Persons" style="rounded=0;whiteSpace=wrap;html=1;sketch=1;hachureGap=4;jiggle=2;curveFitting=1;fontFamily=Architects Daughter;fontSource=https%3A%2F%2Ffonts.googleapis.com%2Fcss%3Ffamily%3DArchitects%2BDaughter;fontSize=20;" vertex="1" parent="1">
                    <mxGeometry x="30" y="190" width="190" height="60" as="geometry"/>
                </mxCell>
                <mxCell id="3" value="Vehicles" style="rounded=0;whiteSpace=wrap;html=1;sketch=1;hachureGap=4;jiggle=2;curveFitting=1;fontFamily=Architects Daughter;fontSource=https%3A%2F%2Ffonts.googleapis.com%2Fcss%3Ffamily%3DArchitects%2BDaughter;fontSize=20;" vertex="1" parent="1">
                    <mxGeometry x="25" y="330" width="210" height="60" as="geometry"/>
                </mxCell>
                <mxCell id="4" value="Parkingspots" style="rounded=0;whiteSpace=wrap;html=1;sketch=1;hachureGap=4;jiggle=2;curveFitting=1;fontFamily=Architects Daughter;fontSource=https%3A%2F%2Ffonts.googleapis.com%2Fcss%3Ffamily%3DArchitects%2BDaughter;fontSize=20;" vertex="1" parent="1">
                    <mxGeometry x="30" y="470" width="210" height="60" as="geometry"/>
                </mxCell>
                <mxCell id="5" value="Parking" style="rounded=0;whiteSpace=wrap;html=1;sketch=1;hachureGap=4;jiggle=2;curveFitting=1;fontFamily=Architects Daughter;fontSource=https%3A%2F%2Ffonts.googleapis.com%2Fcss%3Ffamily%3DArchitects%2BDaughter;fontSize=20;" vertex="1" parent="1">
                    <mxGeometry x="15" y="620" width="280" height="70" as="geometry"/>
                </mxCell>
                <mxCell id="12" value="- ParkingSpot&lt;br&gt;- Vehicle" style="rounded=0;whiteSpace=wrap;html=1;sketch=1;hachureGap=4;jiggle=2;curveFitting=1;fontFamily=Architects Daughter;fontSource=https%3A%2F%2Ffonts.googleapis.com%2Fcss%3Ffamily%3DArchitects%2BDaughter;fontSize=20;" vertex="1" parent="1">
                    <mxGeometry x="-16.669999999999998" y="770" width="142.48" height="100" as="geometry"/>
                </mxCell>
                <mxCell id="14" value="" style="shape=stencil(fVbbbtswDP0avx5IIqnLc9f9R4Gmi7EsKdJ0W/++NDx7oWoT8INs84i3wyMN9PB2fHo9DCm83a6Xn4c/4/PtONC3IaXxfDxcx5uuBnoc6OHlcj38uF7ez8/z++vTZDmtfl1+Tzv8nXGpoNUJlcLH/CUmTK/6fJ8Bp/F8B6CG0AyAkWTfXhJiNvbBtc+Cyp19duIpFbkYewHRvn1ty+81YUKt+4CWUYIBTB7aPiCGgGARpEGy46Ki2ppq1bwiNQLbrmVGDU7WDBIDKIyWnbImsG1DjchOmUR5ES3AJwYL2BKjqs/oMI+QbFlLBjllTQSxrc7ZzSGWPiRhsJNDFGSbNAc0J4dYEW2ndQDFaZxOV+voKu48kCDakLLrgMtSktXBssH2fEaQ3X9l+zaRGGL3J5DH1IxouxxVABymNu4FQDPwPDRVgC4iRnRKqoBih0eLVooDEJSOeAHVE6XSeygRzQlpAuQvAKdtOlud7Ok8s6Ni2rfOgyqnB1DhZkttLYM3PCIItnFa6OAkzdwfPXdSuycZ3bip1Hqng5LzXwQrgBc+bg+0/rad09aIJ6w9vct6oG5HtHB5pVJbctq0/3L2SAU7GYf+YFBue/bU84hyR21d/L9tvIyn03xZuf/f307003yzocdP);lineShape=1;sketch=1;hachureGap=4;jiggle=2;curveFitting=1;fontFamily=Architects Daughter;fontSource=https%3A%2F%2Ffonts.googleapis.com%2Fcss%3Ffamily%3DArchitects%2BDaughter;fontSize=20;" vertex="1" parent="1">
                    <mxGeometry x="1067.729427048766" y="349.049582821174" width="3.88769684696437" height="3.893783143429725" as="geometry"/>
                </mxCell>
                <mxCell id="22" value="sveavägen -&amp;gt; torsbyvägen&amp;nbsp;" style="rounded=0;whiteSpace=wrap;html=1;sketch=1;hachureGap=4;jiggle=2;curveFitting=1;fontFamily=Architects Daughter;fontSource=https%3A%2F%2Ffonts.googleapis.com%2Fcss%3Ffamily%3DArchitects%2BDaughter;fontSize=20;" vertex="1" parent="1">
                    <mxGeometry x="-490" y="620" width="185" height="120" as="geometry"/>
                </mxCell>
                <mxCell id="24" value="- ParkingSpotId&lt;br&gt;- VehicleId" style="rounded=0;whiteSpace=wrap;html=1;sketch=1;hachureGap=4;jiggle=2;curveFitting=1;fontFamily=Architects Daughter;fontSource=https%3A%2F%2Ffonts.googleapis.com%2Fcss%3Ffamily%3DArchitects%2BDaughter;fontSize=20;" vertex="1" parent="1">
                    <mxGeometry x="160.00000000000003" y="770" width="190" height="100" as="geometry"/>
                </mxCell>
                <mxCell id="25" value="Alternativ" style="rounded=0;whiteSpace=wrap;html=1;sketch=1;hachureGap=4;jiggle=2;curveFitting=1;fontFamily=Architects Daughter;fontSource=https%3A%2F%2Ffonts.googleapis.com%2Fcss%3Ffamily%3DArchitects%2BDaughter;fontSize=20;fillColor=#6d8764;fontColor=#ffffff;strokeColor=#3A5431;" vertex="1" parent="1">
                    <mxGeometry x="-50" y="710" width="410" height="30" as="geometry"/>
                </mxCell>
                <mxCell id="26" value="Dubletter" style="text;html=1;strokeColor=#B20000;fillColor=#e51400;align=center;verticalAlign=middle;whiteSpace=wrap;rounded=0;sketch=1;hachureGap=4;jiggle=2;curveFitting=1;fontFamily=Architects Daughter;fontSource=https%3A%2F%2Ffonts.googleapis.com%2Fcss%3Ffamily%3DArchitects%2BDaughter;fontSize=20;fontColor=#ffffff;" vertex="1" parent="1">
                    <mxGeometry x="-170" y="760" width="120" height="45" as="geometry"/>
                </mxCell>
                <mxCell id="27" value="Relationer" style="text;html=1;strokeColor=#B20000;fillColor=#e51400;align=center;verticalAlign=middle;whiteSpace=wrap;rounded=0;sketch=1;hachureGap=4;jiggle=2;curveFitting=1;fontFamily=Architects Daughter;fontSource=https%3A%2F%2Ffonts.googleapis.com%2Fcss%3Ffamily%3DArchitects%2BDaughter;fontSize=20;fontColor=#ffffff;" vertex="1" parent="1">
                    <mxGeometry x="365" y="770" width="120" height="45" as="geometry"/>
                </mxCell>
                <mxCell id="32" value="&lt;font color=&quot;#ffffff&quot;&gt;LÖSNING: Uppdatera BÅDA på writes&lt;/font&gt;" style="text;html=1;strokeColor=#BD7000;fillColor=#f0a30a;align=center;verticalAlign=middle;whiteSpace=wrap;rounded=0;sketch=1;hachureGap=4;jiggle=2;curveFitting=1;fontFamily=Architects Daughter;fontSource=https%3A%2F%2Ffonts.googleapis.com%2Fcss%3Ffamily%3DArchitects%2BDaughter;fontSize=20;fontColor=#000000;" vertex="1" parent="1">
                    <mxGeometry x="-540" y="166.47" width="250" height="127.06" as="geometry"/>
                </mxCell>
                <mxCell id="33" value="BANDID FIX" style="text;html=1;strokeColor=#432D57;fillColor=#76608a;align=center;verticalAlign=middle;whiteSpace=wrap;rounded=0;sketch=1;hachureGap=4;jiggle=2;curveFitting=1;fontFamily=Architects Daughter;fontSource=https%3A%2F%2Ffonts.googleapis.com%2Fcss%3Ffamily%3DArchitects%2BDaughter;fontSize=20;fontColor=#ffffff;" vertex="1" parent="1">
                    <mxGeometry x="-540" y="106.47" width="120" height="45" as="geometry"/>
                </mxCell>
                <mxCell id="23" value="Uppslagning innebär två operationer / någon form av join" style="rounded=0;whiteSpace=wrap;html=1;sketch=1;hachureGap=4;jiggle=2;curveFitting=1;fontFamily=Architects Daughter;fontSource=https%3A%2F%2Ffonts.googleapis.com%2Fcss%3Ffamily%3DArchitects%2BDaughter;fontSize=20;fillColor=#647687;fontColor=#ffffff;strokeColor=#314354;" vertex="1" parent="1">
                    <mxGeometry x="600" y="580" width="450" height="110" as="geometry"/>
                </mxCell>
            </root>
        </mxGraphModel>
    </diagram>
</mxfile>